<svg id="Layer_1" data-name="Layer 1" xmlns="http://www.w3.org/2000/svg" viewBox="0 0 136.53 143.24"><defs><style>.cls-1{fill:#f2b92f;}.cls-2{fill:#fff;}</style></defs><circle cx="65.66" cy="65.66" r="65.66"/><path class="cls-1" d="M108.66,59.07c-.25.27-.52.61-.83.92-3.18,3.21-6.41,6.32-9.52,9.59-1.1,1.15-1.67.67-2.52-.21C90,63.56,84.17,57.83,78.45,51.94c-1.33-1.35-2.08-1.3-3.41,0-5.66,5.8-11.45,11.46-17.11,17.25-1.26,1.29-1.94,1.24-3.14,0-2.88-3.09-5.9-6.06-9-9-1.13-1.08-1-1.73,0-2.79Q60.53,42.74,75.09,28.07c1.17-1.18,1.82-1.15,3,0Q92.75,42.86,107.4,57.51C108.05,57.87,108.66,58.21,108.66,59.07Z" transform="translate(-11.03 -13.48)"/><path class="cls-1" d="M76.94,131.29c-.86,0-1.22-.68-1.65-1.11-9.81-9.78-19.59-19.61-29.45-29.31-1.24-1.24-1-1.91.12-3,3-2.93,6.08-5.88,9-9,1.21-1.3,1.84-1,2.93,0,5.61,5.71,11.27,11.28,17,17.05,1.42,1.44,2.26,1.67,3.79,0,5.55-5.75,11.27-11.27,16.91-17.05,1.22-1.24,1.9-1.39,3.16,0,2.88,3.09,5.91,6.07,9,9,1.1,1,1.15,1.7,0,2.8C97.84,110.5,88,120.4,78.11,130.25A12.79,12.79,0,0,1,76.94,131.29Z" transform="translate(-11.03 -13.48)"/><path class="cls-1" d="M36.08,90.79c-.45-.38-.88-.69-1.24-1.06-3.18-3.17-6.31-6.38-9.54-9.49-1-.95-.83-1.49,0-2.25,3.23-3.14,6.41-6.29,9.52-9.52.88-.9,1.46-1,2.39,0,3.2,3.27,6.45,6.5,9.69,9.72.66.63,1,1.1.16,1.94-3.4,3.31-6.76,6.76-10.12,10.08C36.73,90.32,36.51,90.5,36.08,90.79Z" transform="translate(-11.03 -13.48)"/><path class="cls-1" d="M77.09,67.43c.25.23.61.5.93.82,3.25,3.24,6.45,6.54,9.74,9.71,1,1,.79,1.49,0,2.26Q82.92,85,78.22,89.78c-1,1-1.62,1-2.61,0-3.14-3.25-6.34-6.43-9.54-9.56-.86-.83-1.15-1.35-.11-2.26,3.31-3.17,6.51-6.47,9.76-9.71A1.32,1.32,0,0,1,77.09,67.43Z" transform="translate(-11.03 -13.48)"/><path class="cls-1" d="M129.11,79.05c-.31.41-.64.81-1,1.19-3.18,3.18-6.38,6.32-9.49,9.54-1.06,1.1-1.67.86-2.6,0q-4.5-4.74-9.33-9.34c-1-1-1-1.57,0-2.54,3.16-3.05,6.25-6.18,9.33-9.32.75-.74,1.33-1.37,2.39-.27,3.23,3.36,6.57,6.63,9.88,9.93A3.61,3.61,0,0,1,129.11,79.05Z" transform="translate(-11.03 -13.48)"/><circle class="cls-1" cx="107.41" cy="114.12" r="29.12"/><g id="Layer_2" data-name="Layer 2"><g id="Layer_1-2" data-name="Layer 1-2"><path class="cls-2" d="M118.44,105.54l5.44,5.58-13.71,13.72-5.45-5.45Z" transform="translate(-11.03 -13.48)"/><path class="cls-2" d="M126.71,113.81l5.45,5.58-22,22-5.45-5.45Z" transform="translate(-11.03 -13.48)"/><path class="cls-2" d="M101.89,122.08l5.45,5.58-5.45,5.45-5.44-5.45Z" transform="translate(-11.03 -13.48)"/><path class="cls-2" d="M135,122.08l5.45,5.58-22,22L113,144.2Z" transform="translate(-11.03 -13.48)"/></g></g></svg>