<svg id="Layer_1" data-name="Layer 1" xmlns="http://www.w3.org/2000/svg" viewBox="0 0 136.22 127.96"><defs><style>.cls-1{fill:#d3a42a;}.cls-2{fill:#b88f2e;}.cls-3{fill:#756f65;}.cls-4{fill:#5e5951;}.cls-5{fill:#ffc62a;}.cls-6{fill:#ffda79;}.cls-7{fill:#bfb2a3;}.cls-8{fill:#d8cab9;}.cls-9{opacity:0.48;}.cls-10{fill:#8e857b;}.cls-11{fill:#d0c3b3;}.cls-12{opacity:0.52;}.cls-13{fill:#e1d4c2;}</style></defs><path class="cls-1" d="M165.5,110.37c0,1-6.33,2.56-7.31,2.92-3.88,1.38-7.78,2.72-11.71,4-12.41,3.93-25.08,7.53-38.15,8.15q-2.91.13-5.82.12A112.77,112.77,0,0,1,84.44,124a112.51,112.51,0,0,1-22.5-6.13c-1.79-.7-16.17-5.85-14.9-8.38.51-1,.92-1.86,1.25-2.55a30.08,30.08,0,0,0,1.31-3s30.31,17.08,58.49,14.51,45-8.75,54.64-14.3c.24.26.45.52.65.78A9.69,9.69,0,0,1,165.5,110.37Z" transform="translate(-35.44 -3.02)"/><path class="cls-2" d="M165.5,110.37c0,1-6.33,2.56-7.31,2.92-3.88,1.38-7.78,2.72-11.71,4-12.41,3.93-25.08,7.53-38.15,8.15q-2.91.13-5.82.12c-3.85-.25-7.7-.57-11.55-.9-2.17-.19-4.34-.38-6.52-.59a112.51,112.51,0,0,1-22.5-6.13c-1.79-.7-16.17-5.85-14.9-8.38.51-1,.92-1.86,1.25-2.55.58.3,1.15.65,1.72,1,15.13,9.09,33,13,50.67,13s35.14-3.69,52-8.92c3.6-1.11,8.76-2.85,10.51-6.56a2.9,2.9,0,0,0,.19-.54A9.69,9.69,0,0,1,165.5,110.37Z" transform="translate(-35.44 -3.02)"/><polygon class="cls-3" points="108.74 113.98 99.5 116.35 92.19 96.26 90.02 90.29 99.26 86.5 102.14 94.86 108.74 113.98"/><polygon class="cls-3" points="50.46 88.39 48.36 93.96 39.09 118.48 28.67 113.98 36.7 94.78 40.89 84.78 41.46 83.42 42.61 84.06 50.46 88.39"/><path class="cls-4" d="M78.05,87.08l7.85,4.34L83.8,97a71.44,71.44,0,0,0-9.25.55,11.39,11.39,0,0,1-2.4.27,2,2,0,0,1-1.43-.68c-1.34-1.58,0-4.42,1-5.75a12.45,12.45,0,0,1,4.56-3.57A14.23,14.23,0,0,1,78.05,87.08Z" transform="translate(-35.44 -3.02)"/><path class="cls-4" d="M137.59,97.88c-.64.18-1.29.32-1.92.44a67.93,67.93,0,0,1-8,1l-2.17-6,9.23-3.79Z" transform="translate(-35.44 -3.02)"/><path class="cls-5" d="M170.48,76.25c-2.33,2.74-4.3,4.91-6,6.62-5,5.12-7.07,6.18-7.07,6.18s-.95-20.61-8.06-22.51-9.71-1.89-9.71-1.89l-.37-1-1.05-2.79s12.55-7.11,19.9-2.37S167.87,75.07,170.48,76.25Z" transform="translate(-35.44 -3.02)"/><path class="cls-1" d="M164.52,82.87c-1,1.07-2,2-2.75,2.72h0a23.54,23.54,0,0,1-4.32,3.46s-.95-20.61-8.06-22.51-9.71-1.89-9.71-1.89l-.37-1A5.53,5.53,0,0,1,140.6,61l-1.34-.23a15.47,15.47,0,0,1,17.93,8.61,51.19,51.19,0,0,1,2,6.11,14.37,14.37,0,0,0,2.9,5.67A7.41,7.41,0,0,0,164.52,82.87Z" transform="translate(-35.44 -3.02)"/><path class="cls-6" d="M159.83,61.25a20.9,20.9,0,0,1,6.47,10,6.88,6.88,0,0,1,.42,3.29,2.51,2.51,0,0,1-4.5,1.38,7.92,7.92,0,0,1-1.38-2.31,57.16,57.16,0,0,0-4.17-8.45A14.61,14.61,0,0,0,150,59.42c-.46-.18-1.42-.25-1.13-.87s1.35-.51,1.78-.52a12.76,12.76,0,0,1,4.62.71A14.89,14.89,0,0,1,159.83,61.25Z" transform="translate(-35.44 -3.02)"/><path class="cls-2" d="M161.77,85.59a23.54,23.54,0,0,1-4.32,3.46s-.95-20.61-8.06-22.51-9.71-1.89-9.71-1.89l-.37-1A5.53,5.53,0,0,1,140.6,61l-1.34-.23a15.63,15.63,0,0,1,1.81-.35c2.21.42,4.83,2.09,6.3,3.06a22.75,22.75,0,0,1,9.91,14.75c.46,2.65.77,5.87,3.19,7A3.77,3.77,0,0,0,161.77,85.59Z" transform="translate(-35.44 -3.02)"/><path class="cls-7" d="M55.89,13.22a17.26,17.26,0,0,1,.94-10.09l.15.35c1.31,3,2.8,5.84,3.25,9.09a1.08,1.08,0,0,1-.1.81,1.1,1.1,0,0,1-.85.29A15.1,15.1,0,0,1,55.89,13.22Z" transform="translate(-35.44 -3.02)"/><path class="cls-5" d="M90.33,39.54c-.14.09-.29.17-.44.25-1.42.81-3,1.52-4.35,2.34-5.44-3-9.05-8.25-13.43-12.65A47.79,47.79,0,0,0,48.65,16.6c-.85-2-1.46-4.17-2.15-6.25l-.21-.63c6.25-2.34,12.8-4.29,19.48-4.12s13.56,2.74,17.64,8C89,20.82,89.64,30.49,90.33,39.54Z" transform="translate(-35.44 -3.02)"/><path class="cls-1" d="M89.89,39.79c-.74.42-1.52.82-2.29,1.22s-1.39.73-2.06,1.12c-5.44-3-9.05-8.25-13.43-12.65A47.79,47.79,0,0,0,48.65,16.6c-.54-1.28-1-2.63-1.43-4-.23-.76-.47-1.52-.72-2.26l.21.12a5.13,5.13,0,0,0,2,.43,44.46,44.46,0,0,0,10-.89,47.58,47.58,0,0,1,9.94-1,15.41,15.41,0,0,1,9.28,3.24c4.2,3.54,4.63,9.71,6.33,14.93C85.61,31.61,87.2,36.08,89.89,39.79Z" transform="translate(-35.44 -3.02)"/><path class="cls-6" d="M82.41,16.7A65.81,65.81,0,0,0,85.72,28a2.59,2.59,0,0,0,.62,1,1,1,0,0,0,1.09.25c.51-.24.59-.92.58-1.49a22.36,22.36,0,0,0-3.42-11.34c-.41-.64-1.11-1.34-1.8-1a1.11,1.11,0,0,0-.58,1,3.52,3.52,0,0,0,.29,1.19Z" transform="translate(-35.44 -3.02)"/><path class="cls-6" d="M52.71,8c-.57.2-1.23.54-1.24,1.15a1,1,0,0,0,.7.92,3,3,0,0,0,1.22.12,41.35,41.35,0,0,0,5.44-.61c1.44-.25,4.05-.41,5.24-1.32s-.08-1.92-1-2a36.69,36.69,0,0,0-4.17.37A25.31,25.31,0,0,0,52.71,8Z" transform="translate(-35.44 -3.02)"/><path class="cls-2" d="M87.6,41c-.7.36-1.39.73-2.06,1.12-5.44-3-9.05-8.25-13.43-12.65A47.79,47.79,0,0,0,48.65,16.6c-.54-1.28-1-2.63-1.43-4,4.32.11,8.63-1.08,12.93-1.77,4.95-.78,10.46-.74,14.39,2.36a15.33,15.33,0,0,1,4.64,7C81.76,27.28,84.7,34,87.6,41Z" transform="translate(-35.44 -3.02)"/><path class="cls-7" d="M149.16,115.34l-7.82,2.85-7.58-25.83s-21.32,4.74-33.17,3.56A80.18,80.18,0,0,1,78.32,90l-9.71,28.43-7.82-3.31,9.95-29.85S61.5,75.31,60.32,62c-.37-4.17-.44-8.3-.48-12.11-.1-8.29-.08-15.07-2.84-17.5-1.94.62-4.63,1.5-7.46,2.15l-1.32.28c-.53.1-1.06.2-1.58.28l-.43.06c-4.69.65-9.11.14-10.53-3.72,0,0-1.53-5.3,3.14-10.6.41-.45.86-.91,1.36-1.36.18-.16.36-.32.56-.48l.41-.34a27.92,27.92,0,0,1,7.33-4c6.74-2.61,12-3.85,16.29-3.5A16.57,16.57,0,0,1,69.1,3.23c.16-.16.28-.27.51-.18,1.16,2.87,1.1,6.61.67,9.76A15.37,15.37,0,0,1,75.48,18h0c.37.56.72,1.18,1.07,1.82s.71,1.39,1,2.15C82,31.77,88.59,48.19,93,54.38c1,1.47,1.94,2.36,2.67,2.45,3.79.47,32.45-4.26,38.61-1.66a14.24,14.24,0,0,1,1.89,1c4.53,2.77,9.36,8.58,10.68,14.48a12.78,12.78,0,0,1,.22,4.68C145.43,86.13,140.86,90,140.86,90Z" transform="translate(-35.44 -3.02)"/><path class="cls-8" d="M67.16,11.35A15.77,15.77,0,0,1,68.8,5.64a13.9,13.9,0,0,1,.2,6.69C68.35,12,67.81,11.65,67.16,11.35Z" transform="translate(-35.44 -3.02)"/><g class="cls-9"><path class="cls-10" d="M149.16,115.34l-7.82,2.85-7.58-25.83s-21.32,4.74-33.17,3.56A80.18,80.18,0,0,1,78.32,90l-9.71,28.43-7.82-3.31,9.95-29.85s-8.83-9.52-10.33-22.35c0-.29-.07-.58-.09-.87-.37-4.17-.44-8.3-.48-12.11A45.3,45.3,0,0,0,73,68.32c9.71,8.15,22.49,12.22,35.17,12.39s25.23-3.39,36.55-9.09c.67-.34,1.37-.69,2.09-1a12.78,12.78,0,0,1,.22,4.68,30.77,30.77,0,0,1-4.14,12.17,11.59,11.59,0,0,1-2,2.51Z" transform="translate(-35.44 -3.02)"/></g><path class="cls-11" d="M97,62.73c-3,1.09-6.16,2.94-6.66,6.05A6.56,6.56,0,0,0,93,74.7a15.61,15.61,0,0,0,6.23,2.62,51.27,51.27,0,0,0,32.93-3c2.85-1.31,5.8-3.18,6.71-6.19a6.42,6.42,0,0,0-1.52-6.21C133.43,57.87,124,59.15,119,59.23,111.56,59.35,104,60.14,97,62.73Z" transform="translate(-35.44 -3.02)"/><path class="cls-11" d="M69.87,55.68a15,15,0,0,0,5,5.49c2.18,1.24,5.13,1.4,7.05-.2,2.51-2.1,2.25-5.95,1.77-9.18-1.12-7.54-2.34-15.34-6.54-21.7A13.33,13.33,0,0,0,73,25.83a6.77,6.77,0,0,0-5.78-.69c-5,2-4,10-3.41,14.1A44.09,44.09,0,0,0,69.87,55.68Z" transform="translate(-35.44 -3.02)"/><path class="cls-11" d="M42.66,20.51c-1.86,1.65-3.64,4-3.06,6.38a5.11,5.11,0,0,0,3.85,3.49,12.08,12.08,0,0,0,5.41-.2,41,41,0,0,0,13.69-5.62c2.31-1.48,4.66-3.52,4.9-6.26.53-5.88-6.47-6-10.35-5.11A31.93,31.93,0,0,0,42.66,20.51Z" transform="translate(-35.44 -3.02)"/><g class="cls-12"><path class="cls-3" d="M49.54,34.58l-1.32.28c-.53.1-1.06.2-1.58.28a40.4,40.4,0,0,1-6-13.18,15.46,15.46,0,0,1-.49-2.44c.18-.16.36-.32.56-.48l.41-.34a27.49,27.49,0,0,1,1,3,47.9,47.9,0,0,0,7.25,12.63C49.43,34.43,49.49,34.5,49.54,34.58Z" transform="translate(-35.44 -3.02)"/></g><g class="cls-9"><path class="cls-10" d="M136.12,56.15l-.14.13a12.59,12.59,0,0,1-4.54,2.53c-10,3.67-21,3.95-31.49,1.83a11.47,11.47,0,0,1-5.4-2.19A4.44,4.44,0,0,1,93,54.38c1,1.47,1.94,2.36,2.67,2.45,3.79.47,32.45-4.26,38.61-1.66A14.24,14.24,0,0,1,136.12,56.15Z" transform="translate(-35.44 -3.02)"/></g><path class="cls-5" d="M132.79,56.27a8.43,8.43,0,0,1-3.5,1,205.21,205.21,0,0,1-28,1.83,9.33,9.33,0,0,1-5.08-1,2.61,2.61,0,0,1-1.36-2.08,2.83,2.83,0,0,1,.93-1.81c.12-.12.23-.22.35-.32A12.74,12.74,0,0,1,101,51.61a72.06,72.06,0,0,1,17.42-2.91,33.4,33.4,0,0,1,9,.8c1.66.39,4.64,1,6.07,2.48a2.75,2.75,0,0,1,.7,1.15A3,3,0,0,1,132.79,56.27Z" transform="translate(-35.44 -3.02)"/><path class="cls-1" d="M132.79,56.27a8.43,8.43,0,0,1-3.5,1,205.21,205.21,0,0,1-28,1.83,9.33,9.33,0,0,1-5.08-1,2.61,2.61,0,0,1-1.36-2.08,2.83,2.83,0,0,1,.93-1.81c.12-.12.23-.22.35-.32a3.68,3.68,0,0,0,.67,1.49c1.3,1.3,3.41,1.37,5.13,1.39A170.87,170.87,0,0,0,127.05,55c2.39-.32,5.07-.85,6.38-2.88l.06-.11a2.75,2.75,0,0,1,.7,1.15A3,3,0,0,1,132.79,56.27Z" transform="translate(-35.44 -3.02)"/><path class="cls-6" d="M102,52.17a4.13,4.13,0,0,0-1.45.94,1.58,1.58,0,0,0-.39,1.6c.31.78,1.3,1,2.13,1.07a41.6,41.6,0,0,0,12.8-1.26,6.71,6.71,0,0,0,2-.72,2.32,2.32,0,0,0,1.14-1.71c.22-3.21-4.67-2.53-6.5-2.4A28.85,28.85,0,0,0,102,52.17Z" transform="translate(-35.44 -3.02)"/><path class="cls-6" d="M122.16,49.76c-1.23.24-2.24.76-2.26,1.73a1.54,1.54,0,0,0,.84,1.29,4,4,0,0,0,1.54.41,27.71,27.71,0,0,0,5.31.13,2.27,2.27,0,0,0,1.57-.56c1.66-1.85-1.9-2.89-3.07-3.09A12.6,12.6,0,0,0,122.16,49.76Z" transform="translate(-35.44 -3.02)"/><path class="cls-5" d="M171.66,114.16c0,1.14-7,2.84-8.12,3.23-4.31,1.54-8.63,3-13,4.4-13.77,4.36-27.83,8.35-42.34,9a126,126,0,0,1-51.48-8.33c-2-.78-17.94-6.49-16.54-9.3.21-.41.4-.8.58-1.16a52.33,52.33,0,0,0,2.27-5s33.64,19,64.91,16.11,50-9.71,60.64-15.87a12.35,12.35,0,0,1,1,1.17A10.67,10.67,0,0,1,171.66,114.16Z" transform="translate(-35.44 -3.02)"/><path class="cls-7" d="M67.26,101.74a4.09,4.09,0,0,0-.1,1.63,1.45,1.45,0,0,0,1,1.16c.89.17,1.56-.76,2-1.56,2.28-4.35,4.57-8.75,5.87-13.49A5.82,5.82,0,0,0,76.33,87a2.26,2.26,0,0,0-1.53-1.86C71.16,84.22,67.78,99.23,67.26,101.74Z" transform="translate(-35.44 -3.02)"/><path class="cls-7" d="M139.19,105.14a2.86,2.86,0,0,0,.76,1.11,1.08,1.08,0,0,0,1.25.15,1.63,1.63,0,0,0,.49-1.41,43.75,43.75,0,0,0-1.31-10.62c-.45-1.77-1.79-8.91-4.41-5.64-1.57,2-.51,4.12,0,6.26A46.92,46.92,0,0,0,139.19,105.14Z" transform="translate(-35.44 -3.02)"/><path class="cls-1" d="M171.66,114.16c0,1.14-7,2.84-8.12,3.23-4.31,1.54-8.63,3-13,4.4-13.77,4.36-27.83,8.35-42.34,9a126,126,0,0,1-51.48-8.33c-2-.77-17.75-6.41-16.56-9.25,0,0,0,0,0-.05.21-.41.4-.8.58-1.16.31.17.61.36.92.54,18.24,10.93,39.85,15.6,61.11,15.13s42.2-5.89,61.86-14c1.91-.79,4.18-1.79,4.82-3.94a3.52,3.52,0,0,0,.07-1.34,11.48,11.48,0,0,1,1.27,2.23A9.67,9.67,0,0,1,171.66,114.16Z" transform="translate(-35.44 -3.02)"/><path class="cls-2" d="M171.66,114.16c0,1.14-7,2.84-8.12,3.23-4.31,1.54-8.63,3-13,4.4-13.77,4.36-27.83,8.35-42.34,9a126,126,0,0,1-51.48-8.33c-2-.77-17.75-6.41-16.56-9.25a27.47,27.47,0,0,1,4.69,2.5c17.44,10.56,38.39,14.41,58.75,13.45s40.27-6.48,59.39-13.56c2.89-1.08,6.1-2.58,7.82-5A9.67,9.67,0,0,1,171.66,114.16Z" transform="translate(-35.44 -3.02)"/><path class="cls-6" d="M68.34,119.31a4.91,4.91,0,0,0-2.31-.15,1.67,1.67,0,0,0-1.31,1.69A2.29,2.29,0,0,0,66,122.27c4.53,2.79,10,3.33,15.32,3.81.91.08,2,.08,2.51-.67a1.78,1.78,0,0,0-.54-2.28c-1.56-1.25-4.52-1.45-6.39-1.88Z" transform="translate(-35.44 -3.02)"/><path class="cls-6" d="M98.21,124.06a5,5,0,0,0-1.95.29,1.49,1.49,0,0,0,0,2.87,4.94,4.94,0,0,0,1.8.26,87.31,87.31,0,0,0,18.25-1.66c.88-.17,2-.74,1.73-1.59-.17-.56-.86-.75-1.44-.84a26.69,26.69,0,0,0-9,.32C104.6,124.3,101.29,124,98.21,124.06Z" transform="translate(-35.44 -3.02)"/><g class="cls-12"><path class="cls-3" d="M45.28,30.76a1.86,1.86,0,0,0,2.15-1.51A67.83,67.83,0,0,0,76.1,19.74a9.7,9.7,0,0,0-4.26.8c-4.08,1.48-8,3.48-12.16,4.69-4.41,1.27-9,1.63-13.4,3.09A3.35,3.35,0,0,0,44.5,29.4a1.25,1.25,0,0,0,.34,1.82Z" transform="translate(-35.44 -3.02)"/></g><path class="cls-5" d="M48.22,34.86c-.67.13-1.35.25-2,.34a31.3,31.3,0,0,1-7.39-14.32c.27-.3.56-.61.88-.91a13.68,13.68,0,0,1,1-.93A48.18,48.18,0,0,0,47.6,34C47.8,34.28,48,34.58,48.22,34.86Z" transform="translate(-35.44 -3.02)"/><path class="cls-5" d="M43.65,27.65a1.91,1.91,0,0,0,1,2.24A1.61,1.61,0,0,0,46.75,29C47.25,27.19,44.32,25.37,43.65,27.65Z" transform="translate(-35.44 -3.02)"/><path class="cls-5" d="M76.56,19.86C67,23.69,57.18,27.51,46.92,28.6l-1,.09a1.21,1.21,0,0,1-.9-.16c-.24-.2-.15-1.07.16-1.12a125.1,125.1,0,0,0,30.19-9.18l.07-.19h0l.44.7C76.14,19.1,76.35,19.48,76.56,19.86Z" transform="translate(-35.44 -3.02)"/><path class="cls-3" d="M58.45,15.78s0,.14-.08.36a3.57,3.57,0,0,0,0,.91,2.48,2.48,0,0,0,.12.54,1.7,1.7,0,0,0,.28.51,1.45,1.45,0,0,0,.43.39l.23.11a1.45,1.45,0,0,0,.29,0,1.52,1.52,0,0,0,.59-.07,2,2,0,0,0,.56-.26,2.58,2.58,0,0,0,.47-.4,3.92,3.92,0,0,0,.37-.46,9.22,9.22,0,0,0,.5-.8l.19-.32a2.73,2.73,0,0,1,0,.38,3.89,3.89,0,0,1-.19,1,3.19,3.19,0,0,1-.29.63l-.22.32a2.31,2.31,0,0,1-.3.32,2.4,2.4,0,0,1-1.74.62,2.35,2.35,0,0,1-.48-.1,1.8,1.8,0,0,1-.48-.25,2.07,2.07,0,0,1-.62-.7,2.11,2.11,0,0,1-.27-.8,2.24,2.24,0,0,1,0-.74,2.44,2.44,0,0,1,.42-.94A2.2,2.2,0,0,1,58.45,15.78Z" transform="translate(-35.44 -3.02)"/><path class="cls-1" d="M48.22,34.86c-.67.13-1.35.25-2,.34a31.3,31.3,0,0,1-7.39-14.32c.27-.3.56-.61.88-.91a16.56,16.56,0,0,0,.59,4,17.9,17.9,0,0,0,3.77,7,16.67,16.67,0,0,0,3.45,3l.09,0C47.8,34.28,48,34.58,48.22,34.86Z" transform="translate(-35.44 -3.02)"/><path class="cls-1" d="M76.56,19.86C67,23.69,57.18,27.51,46.92,28.6a1.79,1.79,0,0,1,0-.34c3.75-1,7.64-1.35,11.39-2.41A85.68,85.68,0,0,0,69.18,22q3-1.32,5.9-2.86a3.54,3.54,0,0,1,.85-.35C76.14,19.1,76.35,19.48,76.56,19.86Z" transform="translate(-35.44 -3.02)"/><path class="cls-6" d="M45.15,27.17a1.17,1.17,0,1,0,.24.06Z" transform="translate(-35.44 -3.02)"/><path class="cls-13" d="M45.64,21.63a4.58,4.58,0,0,0-1.08,2.15,2.11,2.11,0,0,0,.88,2.12,3,3,0,0,0,1.89.23,24.3,24.3,0,0,0,4-.77,9,9,0,0,0,3.78-1.87,4.11,4.11,0,0,0,1.35-3.84c-.56-2.2-3.07-2.56-4.88-2A12.5,12.5,0,0,0,45.64,21.63Z" transform="translate(-35.44 -3.02)"/><g class="cls-9"><path class="cls-10" d="M149.16,115.34l-7.82,2.85-7.58-25.83s-21.32,4.74-33.17,3.56A80.18,80.18,0,0,1,78.32,90l-9.71,28.43-7.82-3.31,9.95-29.85s-8.83-9.52-10.33-22.35a46.83,46.83,0,0,0,15.34,15.8c9.76,6.24,21.35,9.17,32.9,10.06,11.4.87,22.85-.14,34.23-1.29a11.59,11.59,0,0,1-2,2.51Z" transform="translate(-35.44 -3.02)"/></g></svg>