<svg xmlns="http://www.w3.org/2000/svg" viewBox="0 0 102.77 123.81"><defs><style>.cls-1{isolation:isolate;}.cls-2{fill:#ffd186;}.cls-3{fill:#a73f5c;}.cls-4{fill:#f27344;}.cls-5{fill:#221f1f;}.cls-5,.cls-6{mix-blend-mode:soft-light;}.cls-6{fill:#fff;}</style></defs><g class="cls-1"><g id="Layer_1" data-name="Layer 1"><path class="cls-2" d="M90.81,54.7s5.31,16.45-5.65,23.08-20-1.1-21.17-3.7-5.4-12.93-14.53-10-7.63,26.94,5,45.11,50.82,23,72.05,12.8,21.82-26,18.17-39-18.21-14-15.76-36.35-4.43-45.9-26.39-43-26.93,19.75-23,32.06S87.87,47.84,90.81,54.7Z" transform="translate(-43.61 -3.47)"/><path class="cls-3" d="M91.3,28.36c.66,3.77,3.62,6.41,6.61,5.9s4.91-4,4.25-7.78-3.61-6.41-6.61-5.9S90.65,24.58,91.3,28.36Z" transform="translate(-43.61 -3.47)"/><path class="cls-4" d="M142.19,26.6s-5.2,5.76-13.69.79c0,0-5.36-2.89-8.45-2.49S112.85,39.57,106,39c0,0,.43,10.2,11.06,12.31S152.68,43.86,142.19,26.6Z" transform="translate(-43.61 -3.47)"/><path class="cls-5" d="M114.74,35.7a9.62,9.62,0,0,1-6.48,4.46s1.6,12.22,16.27,9.7c14.1-2.42,18.87-11.43,18.31-16.18,0,0-1.75-2.45-8.39,1.62S119.15,39.45,114.74,35.7Z" transform="translate(-43.61 -3.47)"/><path class="cls-5" d="M109.94,49.9a23.42,23.42,0,0,0,17.31,1.92s-1.63,4.33,1.66,10.08C128.91,61.9,114.12,65.67,109.94,49.9Z" transform="translate(-43.61 -3.47)"/><path class="cls-5" d="M60.55,111.52s18.67,10.19,40,6.51S144,78.23,143.35,97.2C142.43,122.36,95.93,138,60.55,111.52Z" transform="translate(-43.61 -3.47)"/><path class="cls-5" d="M92,28.63s1.33,5.43,5.77,4.86,4.1-6.37,3.14-8.5c0,0-.74,3.74-3.75,5S92,28.63,92,28.63Z" transform="translate(-43.61 -3.47)"/><path class="cls-6" d="M94.26,24.29a2,2,0,1,0,1.62-2.49A2.09,2.09,0,0,0,94.26,24.29Z" transform="translate(-43.61 -3.47)"/><path class="cls-6" d="M81.32,19a25.69,25.69,0,0,1,22-13.8c16-.57,15.2,6.71,15.2,6.71s1.55,4.34-8.8,4S94.57,9.7,81.32,19Z" transform="translate(-43.61 -3.47)"/><path class="cls-6" d="M46.07,69.89a6.47,6.47,0,0,1,5.13-4.83c4.41-.93,7.86,2.32,9.23,5.68s2.23,6.91,5.87,7.59c0,0-4.21,1-7.94-4.84S50,74.93,46.07,69.89Z" transform="translate(-43.61 -3.47)"/><path class="cls-5" d="M101.5,123.65s23.16,2,36.37-15c0,0,1.89-5.59-4.4-2.4S126.6,120.23,101.5,123.65Z" transform="translate(-43.61 -3.47)"/><path class="cls-5" d="M125.63,53.69a20,20,0,0,1-9.8-.29s1.72,8.39,11.19,6.88C127,60.28,124.81,56.92,125.63,53.69Z" transform="translate(-43.61 -3.47)"/><path class="cls-5" d="M139.18,40.41a23.71,23.71,0,0,1-22,8.24s-2.87-.39-6.27-5.06C110.91,43.59,119.14,50.06,139.18,40.41Z" transform="translate(-43.61 -3.47)"/></g></g></svg>